# FamiTracker text export 0.4.2

# Song information
TITLE           ""
AUTHOR          ""
COPYRIGHT       ""

# Song comment
COMMENT ""

# Global settings
MACHINE         0
FRAMERATE       0
EXPANSION       0
VIBRATO         1
SPLIT           32

# Macros
MACRO       2   0   0  -1   0 : -2 0 0 -2 0 0 2 0 0 2 0 0
MACRO       4   0  -1  -1   0 : 0 0 1 1 2 2 2 1

# DPCM samples

# Instruments
INST2A03   0    -1  -1  -1  -1  -1 "Blank"
INST2A03   1    -1  -1   0  -1   0 "Leady"

# Tracks

TRACK 128   2 150 "New song"
COLUMNS : 1 2 1 1 1

ORDER 00 : 00 00 00 00 00
ORDER 01 : 01 01 01 01 01
ORDER 02 : 02 02 02 02 02

PATTERN 00
ROW 00 : ... .. . ... : ... .. . ... ... : ... .. . ... : ... .. . ... : ... .. . ...
ROW 01 : ... .. . ... : ... .. . ... ... : ... .. . ... : ... .. . ... : ... .. . ...
ROW 02 : ... .. . ... : ... .. . ... ... : ... .. . ... : ... .. . ... : ... .. . ...
ROW 03 : ... .. . ... : ... .. . ... ... : ... .. . ... : ... .. . ... : ... .. . ...
ROW 04 : ... .. . ... : ... .. . ... ... : ... .. . ... : ... .. . ... : ... .. . ...
ROW 05 : ... .. . ... : ... .. . ... ... : ... .. . ... : ... .. . ... : ... .. . ...
ROW 06 : ... .. . ... : ... .. . ... ... : ... .. . ... : ... .. . ... : ... .. . ...
ROW 07 : ... .. . ... : ... .. . ... ... : ... .. . ... : ... .. . ... : ... .. . ...
ROW 08 : ... .. . ... : ... .. . ... ... : ... .. . ... : ... .. . ... : ... .. . ...
ROW 09 : ... .. . ... : ... .. . ... ... : ... .. . ... : ... .. . ... : ... .. . ...
ROW 0A : ... .. . ... : ... .. . ... ... : ... .. . ... : ... .. . ... : ... .. . ...
ROW 0B : ... .. . ... : ... .. . ... ... : ... .. . ... : ... .. . ... : ... .. . ...
ROW 0C : ... .. . ... : ... .. . ... ... : ... .. . ... : ... .. . ... : ... .. . ...
ROW 0D : ... .. . ... : ... .. . ... ... : ... .. . ... : ... .. . ... : ... .. . ...
ROW 0E : ... .. . ... : ... .. . ... ... : ... .. . ... : ... .. . ... : ... .. . ...
ROW 0F : ... .. . ... : ... .. . ... ... : ... .. . ... : ... .. . ... : ... .. . ...
ROW 10 : ... .. . ... : ... .. . ... ... : ... .. . ... : ... .. . ... : ... .. . ...
ROW 11 : ... .. . ... : ... .. . ... ... : ... .. . ... : ... .. . ... : ... .. . ...
ROW 12 : ... .. . ... : ... .. . ... ... : ... .. . ... : ... .. . ... : ... .. . ...
ROW 13 : ... .. . ... : ... .. . ... ... : ... .. . ... : ... .. . ... : ... .. . ...
ROW 14 : ... .. . ... : ... .. . ... ... : ... .. . ... : ... .. . ... : ... .. . ...
ROW 15 : ... .. . ... : ... .. . ... ... : ... .. . ... : ... .. . ... : ... .. . ...
ROW 16 : ... .. . ... : ... .. . ... ... : ... .. . ... : ... .. . ... : ... .. . ...
ROW 17 : ... .. . ... : ... .. . ... ... : ... .. . ... : ... .. . ... : ... .. . ...
ROW 18 : ... .. . ... : ... .. . ... ... : ... .. . ... : ... .. . ... : ... .. . ...
ROW 19 : ... .. . ... : ... .. . ... ... : ... .. . ... : ... .. . ... : ... .. . ...
ROW 1A : ... .. . ... : ... .. . ... ... : ... .. . ... : ... .. . ... : ... .. . ...
ROW 1B : ... .. . ... : ... .. . ... ... : ... .. . ... : ... .. . ... : ... .. . ...
ROW 1C : ... .. . ... : ... .. . ... ... : ... .. . ... : ... .. . ... : ... .. . ...
ROW 1D : ... .. . ... : ... .. . ... ... : ... .. . ... : ... .. . ... : ... .. . ...
ROW 1E : ... .. . ... : ... .. . ... ... : ... .. . ... : ... .. . ... : ... .. . ...
ROW 1F : ... .. . ... : ... .. . ... ... : ... .. . ... : ... .. . ... : ... .. . ...
ROW 20 : ... .. . ... : ... .. . ... ... : ... .. . ... : ... .. . ... : ... .. . ...
ROW 21 : ... .. . ... : ... .. . ... ... : ... .. . ... : ... .. . ... : ... .. . ...
ROW 22 : ... .. . ... : ... .. . ... ... : ... .. . ... : ... .. . ... : ... .. . ...
ROW 23 : ... .. . ... : ... .. . ... ... : ... .. . ... : ... .. . ... : ... .. . ...
ROW 24 : ... .. . ... : ... .. . ... ... : ... .. . ... : ... .. . ... : ... .. . ...
ROW 25 : ... .. . ... : ... .. . ... ... : ... .. . ... : ... .. . ... : ... .. . ...
ROW 26 : ... .. . ... : ... .. . ... ... : ... .. . ... : ... .. . ... : ... .. . ...
ROW 27 : ... .. . ... : ... .. . ... ... : ... .. . ... : ... .. . ... : ... .. . ...
ROW 28 : ... .. . ... : ... .. . ... ... : ... .. . ... : ... .. . ... : ... .. . ...
ROW 29 : ... .. . ... : ... .. . ... ... : ... .. . ... : ... .. . ... : ... .. . ...
ROW 2A : ... .. . ... : ... .. . ... ... : ... .. . ... : ... .. . ... : ... .. . ...
ROW 2B : ... .. . ... : ... .. . ... ... : ... .. . ... : ... .. . ... : ... .. . ...
ROW 2C : ... .. . ... : ... .. . ... ... : ... .. . ... : ... .. . ... : ... .. . ...
ROW 2D : ... .. . ... : ... .. . ... ... : ... .. . ... : ... .. . ... : ... .. . ...
ROW 2E : ... .. . ... : ... .. . ... ... : ... .. . ... : ... .. . ... : ... .. . ...
ROW 2F : ... .. . ... : ... .. . ... ... : ... .. . ... : ... .. . ... : ... .. . ...
ROW 30 : ... .. . ... : ... .. . ... ... : ... .. . ... : ... .. . ... : ... .. . ...
ROW 31 : ... .. . ... : ... .. . ... ... : ... .. . ... : ... .. . ... : ... .. . ...
ROW 32 : ... .. . ... : ... .. . ... ... : ... .. . ... : ... .. . ... : ... .. . ...
ROW 33 : ... .. . ... : ... .. . ... ... : ... .. . ... : ... .. . ... : ... .. . ...
ROW 34 : ... .. . ... : ... .. . ... ... : ... .. . ... : ... .. . ... : ... .. . ...
ROW 35 : ... .. . ... : ... .. . ... ... : ... .. . ... : ... .. . ... : ... .. . ...
ROW 36 : ... .. . ... : ... .. . ... ... : ... .. . ... : ... .. . ... : ... .. . ...
ROW 37 : ... .. . ... : ... .. . ... ... : ... .. . ... : ... .. . ... : ... .. . ...
ROW 38 : ... .. . ... : ... .. . ... ... : ... .. . ... : ... .. . ... : ... .. . ...
ROW 39 : ... .. . ... : ... .. . ... ... : ... .. . ... : ... .. . ... : ... .. . ...
ROW 3A : ... .. . ... : ... .. . ... ... : ... .. . ... : ... .. . ... : ... .. . ...
ROW 3B : ... .. . ... : ... .. . ... ... : ... .. . ... : ... .. . ... : ... .. . ...
ROW 3C : ... .. . ... : ... .. . ... ... : ... .. . ... : ... .. . ... : ... .. . ...
ROW 3D : ... .. . ... : ... .. . ... ... : ... .. . ... : ... .. . ... : ... .. . ...
ROW 3E : ... .. . ... : ... .. . ... ... : ... .. . ... : ... .. . ... : ... .. . ...
ROW 3F : ... .. . ... : ... .. . ... ... : ... .. . ... : ... .. . ... : ... .. . ...
ROW 40 : E-3 00 1 V02 : ... .. . ... ... : ... .. . ... : ... .. . ... : ... .. . ...
ROW 41 : ... .. . ... : ... .. . ... ... : ... .. . ... : ... .. . ... : ... .. . ...
ROW 42 : ... .. 0 V01 : ... .. . ... ... : ... .. . ... : ... .. . ... : ... .. . ...
ROW 43 : ... .. . ... : ... .. . ... ... : ... .. . ... : ... .. . ... : ... .. . ...
ROW 44 : D-3 00 1 V02 : ... .. . ... ... : ... .. . ... : ... .. . ... : ... .. . ...
ROW 45 : ... .. . ... : ... .. . ... ... : ... .. . ... : ... .. . ... : ... .. . ...
ROW 46 : E-3 00 0 V01 : ... .. . ... ... : ... .. . ... : ... .. . ... : ... .. . ...
ROW 47 : ... .. . ... : ... .. . ... ... : ... .. . ... : ... .. . ... : ... .. . ...
ROW 48 : A-3 00 1 V02 : ... .. . ... ... : ... .. . ... : ... .. . ... : ... .. . ...
ROW 49 : ... .. . ... : ... .. . ... ... : ... .. . ... : ... .. . ... : ... .. . ...
ROW 4A : D-3 00 0 V01 : ... .. . ... ... : ... .. . ... : ... .. . ... : ... .. . ...
ROW 4B : ... .. . ... : ... .. . ... ... : ... .. . ... : ... .. . ... : ... .. . ...
ROW 4C : F-3 00 2 V02 : ... .. . ... ... : ... .. . ... : ... .. . ... : ... .. . ...
ROW 4D : ... .. . ... : ... .. . ... ... : ... .. . ... : ... .. . ... : ... .. . ...
ROW 4E : A-3 00 0 V01 : ... .. . ... ... : ... .. . ... : ... .. . ... : ... .. . ...
ROW 4F : ... .. . ... : ... .. . ... ... : ... .. . ... : ... .. . ... : ... .. . ...
ROW 50 : E-3 00 2 V02 : ... .. . ... ... : ... .. . ... : ... .. . ... : ... .. . ...
ROW 51 : ... .. . ... : ... .. . ... ... : ... .. . ... : ... .. . ... : ... .. . ...
ROW 52 : F-3 00 0 V01 : ... .. . ... ... : ... .. . ... : ... .. . ... : ... .. . ...
ROW 53 : ... .. . ... : ... .. . ... ... : ... .. . ... : ... .. . ... : ... .. . ...
ROW 54 : D-3 00 2 V02 : ... .. . ... ... : ... .. . ... : ... .. . ... : ... .. . ...
ROW 55 : ... .. . ... : ... .. . ... ... : ... .. . ... : ... .. . ... : ... .. . ...
ROW 56 : E-3 00 0 V01 : ... .. . ... ... : ... .. . ... : ... .. . ... : ... .. . ...
ROW 57 : ... .. . ... : ... .. . ... ... : ... .. . ... : ... .. . ... : ... .. . ...
ROW 58 : A-3 00 3 V02 : ... .. . ... ... : ... .. . ... : ... .. . ... : ... .. . ...
ROW 59 : ... .. . ... : ... .. . ... ... : ... .. . ... : ... .. . ... : ... .. . ...
ROW 5A : D-3 00 0 V01 : ... .. . ... ... : ... .. . ... : ... .. . ... : ... .. . ...
ROW 5B : ... .. . ... : ... .. . ... ... : ... .. . ... : ... .. . ... : ... .. . ...
ROW 5C : F-3 00 3 V02 : ... .. . ... ... : ... .. . ... : ... .. . ... : ... .. . ...
ROW 5D : ... .. . ... : ... .. . ... ... : ... .. . ... : ... .. . ... : ... .. . ...
ROW 5E : A-3 00 1 V01 : ... .. . ... ... : ... .. . ... : ... .. . ... : ... .. . ...
ROW 5F : ... .. . ... : ... .. . ... ... : ... .. . ... : ... .. . ... : ... .. . ...
ROW 60 : E-3 00 3 V02 : ... .. . ... ... : ... .. . ... : ... .. . ... : ... .. . ...
ROW 61 : ... .. . ... : ... .. . ... ... : ... .. . ... : ... .. . ... : ... .. . ...
ROW 62 : F-3 00 1 V01 : ... .. . ... ... : ... .. . ... : ... .. . ... : ... .. . ...
ROW 63 : ... .. . ... : ... .. . ... ... : ... .. . ... : ... .. . ... : ... .. . ...
ROW 64 : D-3 00 3 V02 : ... .. . ... ... : ... .. . ... : ... .. . ... : ... .. . ...
ROW 65 : ... .. . ... : ... .. . ... ... : ... .. . ... : ... .. . ... : ... .. . ...
ROW 66 : E-3 00 2 V01 : ... .. . ... ... : ... .. . ... : ... .. . ... : ... .. . ...
ROW 67 : ... .. . ... : ... .. . ... ... : ... .. . ... : ... .. . ... : ... .. . ...
ROW 68 : A-3 00 4 V02 : ... .. . ... ... : ... .. . ... : ... .. . ... : ... .. . ...
ROW 69 : ... .. . ... : ... .. . ... ... : ... .. . ... : ... .. . ... : ... .. . ...
ROW 6A : D-3 00 2 V01 : ... .. . ... ... : ... .. . ... : ... .. . ... : ... .. . ...
ROW 6B : ... .. . ... : ... .. . ... ... : ... .. . ... : ... .. . ... : ... .. . ...
ROW 6C : F-3 00 4 V02 : ... .. . ... ... : ... .. . ... : ... .. . ... : ... .. . ...
ROW 6D : ... .. . ... : ... .. . ... ... : ... .. . ... : ... .. . ... : ... .. . ...
ROW 6E : A-3 00 2 V01 : ... .. . ... ... : ... .. . ... : ... .. . ... : ... .. . ...
ROW 6F : ... .. . ... : ... .. . ... ... : ... .. . ... : ... .. . ... : ... .. . ...
ROW 70 : E-3 00 5 V02 : ... .. . ... ... : ... .. . ... : ... .. . ... : ... .. . ...
ROW 71 : ... .. . ... : ... .. . ... ... : ... .. . ... : ... .. . ... : ... .. . ...
ROW 72 : F-3 00 2 V01 : ... .. . ... ... : ... .. . ... : ... .. . ... : ... .. . ...
ROW 73 : ... .. . ... : ... .. . ... ... : ... .. . ... : ... .. . ... : ... .. . ...
ROW 74 : D-3 00 5 V02 : ... .. . ... ... : ... .. . ... : ... .. . ... : ... .. . ...
ROW 75 : ... .. . ... : ... .. . ... ... : ... .. . ... : ... .. . ... : ... .. . ...
ROW 76 : E-3 00 2 V01 : ... .. . ... ... : ... .. . ... : ... .. . ... : ... .. . ...
ROW 77 : ... .. . ... : ... .. . ... ... : ... .. . ... : ... .. . ... : ... .. . ...
ROW 78 : A-3 00 6 V02 : ... .. . ... ... : ... .. . ... : ... .. . ... : ... .. . ...
ROW 79 : ... .. . ... : ... .. . ... ... : ... .. . ... : ... .. . ... : ... .. . ...
ROW 7A : D-3 00 2 V01 : ... .. . ... ... : ... .. . ... : ... .. . ... : ... .. . ...
ROW 7B : ... .. . ... : ... .. . ... ... : ... .. . ... : ... .. . ... : ... .. . ...
ROW 7C : F-3 00 7 V02 : ... .. . ... ... : ... .. . ... : ... .. . ... : ... .. . ...
ROW 7D : ... .. . ... : ... .. . ... ... : ... .. . ... : ... .. . ... : ... .. . ...
ROW 7E : A-3 00 3 V01 : ... .. . ... ... : ... .. . ... : ... .. . ... : ... .. . ...
ROW 7F : ... .. . ... : ... .. . ... ... : ... .. . ... : ... .. . ... : ... .. . ...

PATTERN 01
ROW 00 : E-3 00 8 V02 : D-4 01 C ... ... : D-2 00 . ... : 0-# 00 1 ... : ... .. . ...
ROW 01 : ... .. . ... : D#4 01 . ... ... : ... .. . ... : ... .. . ... : ... .. . ...
ROW 02 : F-3 00 4 V01 : E-4 01 . ... ... : ... .. . ... : ... .. . ... : ... .. . ...
ROW 03 : ... .. . ... : ... .. . ... ... : ... .. . ... : ... .. . ... : ... .. . ...
ROW 04 : D-3 00 8 V02 : ... .. . ... ... : ... .. . ... : ... .. . ... : ... .. . ...
ROW 05 : ... .. . ... : ... .. . ... ... : ... .. . ... : ... .. . ... : ... .. . ...
ROW 06 : E-3 00 4 V01 : ... .. . ... ... : ... .. . ... : ... .. . ... : ... .. . ...
ROW 07 : ... .. . ... : ... .. . ... ... : ... .. . ... : ... .. . ... : ... .. . ...
ROW 08 : A-3 00 8 V02 : ... .. C A04 ... : ... .. . ... : ... .. . ... : ... .. . ...
ROW 09 : ... .. . ... : ... .. . ... ... : ... .. . ... : ... .. . ... : ... .. . ...
ROW 0A : D-3 00 4 V01 : ... .. . ... ... : ... .. . ... : ... .. . ... : ... .. . ...
ROW 0B : ... .. . ... : ... .. . ... ... : ... .. . ... : ... .. . ... : ... .. . ...
ROW 0C : F-3 00 8 V02 : ... .. . ... ... : ... .. . ... : ... .. 2 ... : ... .. . ...
ROW 0D : ... .. . ... : ... .. . ... ... : ... .. . ... : ... .. . ... : ... .. . ...
ROW 0E : A-3 00 4 V01 : ... .. . ... ... : ... .. . ... : ... .. . ... : ... .. . ...
ROW 0F : ... .. . ... : ... .. . ... ... : ... .. . ... : ... .. . ... : ... .. . ...
ROW 10 : E-3 00 8 V02 : ... .. A ... ... : ... .. . ... : 1-# 00 . ... : ... .. . ...
ROW 11 : ... .. . ... : ... .. . ... ... : ... .. . ... : ... .. . ... : ... .. . ...
ROW 12 : F-3 00 4 V01 : ... .. . ... ... : ... .. . ... : ... .. . ... : ... .. . ...
ROW 13 : ... .. . ... : ... .. . ... ... : ... .. . ... : ... .. . ... : ... .. . ...
ROW 14 : D-3 00 8 V02 : ... .. . ... ... : ... .. . ... : ... .. . ... : ... .. . ...
ROW 15 : ... .. . ... : ... .. . ... ... : ... .. . ... : ... .. . ... : ... .. . ...
ROW 16 : E-3 00 4 V01 : ... .. . ... ... : ... .. . ... : ... .. . ... : ... .. . ...
ROW 17 : ... .. . ... : ... .. . ... ... : ... .. . ... : ... .. . ... : ... .. . ...
ROW 18 : A-3 00 8 V02 : ... .. . ... ... : ... .. . ... : ... .. . ... : ... .. . ...
ROW 19 : ... .. . ... : ... .. . ... ... : ... .. . ... : ... .. 3 ... : ... .. . ...
ROW 1A : D-3 00 4 V01 : ... .. . ... ... : ... .. . ... : ... .. . ... : ... .. . ...
ROW 1B : ... .. . ... : ... .. . ... ... : ... .. . ... : ... .. . ... : ... .. . ...
ROW 1C : F-3 00 8 V02 : ... .. 9 ... ... : ... .. . ... : ... .. . ... : ... .. . ...
ROW 1D : ... .. . ... : ... .. . ... ... : ... .. . ... : ... .. . ... : ... .. . ...
ROW 1E : A-3 00 4 V01 : ... .. . ... ... : ... .. . ... : ... .. . ... : ... .. . ...
ROW 1F : ... .. . ... : ... .. . ... ... : ... .. . ... : ... .. . ... : ... .. . ...
ROW 20 : E-3 00 8 V02 : ... .. . ... ... : ... .. . ... : 2-# 00 . ... : ... .. . ...
ROW 21 : ... .. . ... : ... .. . ... ... : ... .. . ... : ... .. 4 ... : ... .. . ...
ROW 22 : F-3 00 4 V01 : ... .. . ... ... : ... .. . ... : ... .. . ... : ... .. . ...
ROW 23 : ... .. . ... : ... .. . ... ... : ... .. . ... : ... .. . ... : ... .. . ...
ROW 24 : D-3 00 8 V02 : ... .. . ... ... : ... .. . ... : ... .. . ... : ... .. . ...
ROW 25 : ... .. . ... : ... .. . ... ... : ... .. . ... : ... .. . ... : ... .. . ...
ROW 26 : E-3 00 4 V01 : ... .. . ... ... : ... .. . ... : 3-# 00 . ... : ... .. . ...
ROW 27 : ... .. . ... : ... .. . ... ... : ... .. . ... : ... .. . ... : ... .. . ...
ROW 28 : A-3 00 8 V02 : ... .. 8 ... ... : ... .. . ... : ... .. . ... : ... .. . ...
ROW 29 : ... .. . ... : ... .. . ... ... : ... .. . ... : ... .. . ... : ... .. . ...
ROW 2A : D-3 00 4 V01 : ... .. . ... ... : ... .. . ... : 4-# 00 5 ... : ... .. . ...
ROW 2B : ... .. . ... : ... .. . ... ... : ... .. . ... : ... .. . ... : ... .. . ...
ROW 2C : F-3 00 8 V02 : ... .. . ... ... : ... .. . ... : ... .. . ... : ... .. . ...
ROW 2D : ... .. . ... : ... .. . ... ... : ... .. . ... : ... .. . ... : ... .. . ...
ROW 2E : A-3 00 4 V01 : ... .. . ... ... : ... .. . ... : ... .. . ... : ... .. . ...
ROW 2F : ... .. . ... : ... .. . ... ... : ... .. . ... : 5-# 00 . ... : ... .. . ...
ROW 30 : E-3 00 8 V02 : ... .. . ... ... : ... .. . ... : ... .. . ... : ... .. . ...
ROW 31 : ... .. . ... : ... .. . ... ... : ... .. . ... : ... .. . ... : ... .. . ...
ROW 32 : F-3 00 4 V01 : ... .. . ... ... : ... .. . ... : ... .. . ... : ... .. . ...
ROW 33 : ... .. . ... : ... .. . ... ... : ... .. . ... : ... .. . ... : ... .. . ...
ROW 34 : D-3 00 8 V02 : ... .. . ... ... : ... .. . ... : ... .. . ... : ... .. . ...
ROW 35 : ... .. . ... : ... .. . ... ... : ... .. . ... : ... .. . ... : ... .. . ...
ROW 36 : E-3 00 4 V01 : ... .. . ... ... : ... .. . ... : 6-# 00 . ... : ... .. . ...
ROW 37 : ... .. . ... : ... .. . ... ... : ... .. . ... : ... .. . ... : ... .. . ...
ROW 38 : A-3 00 8 V02 : ... .. . ... ... : ... .. . ... : ... .. . ... : ... .. . ...
ROW 39 : ... .. . ... : ... .. . ... ... : ... .. . ... : ... .. . ... : ... .. . ...
ROW 3A : D-3 00 4 V01 : ... .. . ... ... : ... .. . ... : ... .. . ... : ... .. . ...
ROW 3B : ... .. . ... : ... .. . ... ... : ... .. . ... : ... .. . ... : ... .. . ...
ROW 3C : F-3 00 8 V02 : ... .. . ... ... : ... .. . ... : 7-# 00 . ... : ... .. . ...
ROW 3D : ... .. . ... : ... .. . ... ... : ... .. . ... : ... .. . ... : ... .. . ...
ROW 3E : A-3 00 4 V01 : ... .. . ... ... : ... .. . ... : 8-# 00 . ... : ... .. . ...
ROW 3F : ... .. . ... : ... .. . ... ... : ... .. . ... : ... .. . ... : ... .. . ...
ROW 40 : E-3 00 8 V02 : ... .. 0 A10 ... : ... .. . ... : 9-# 00 . ... : ... .. . ...
ROW 41 : ... .. . ... : ... .. . ... ... : ... .. . ... : ... .. . ... : ... .. . ...
ROW 42 : F-3 00 4 V01 : ... .. . ... ... : ... .. . ... : ... .. . ... : ... .. . ...
ROW 43 : ... .. . ... : ... .. . ... ... : ... .. . ... : ... .. . ... : ... .. . ...
ROW 44 : D-3 00 8 V02 : ... .. . ... ... : ... .. . ... : ... .. 5 ... : ... .. . ...
ROW 45 : ... .. . ... : ... .. . ... ... : ... .. . ... : ... .. . ... : ... .. . ...
ROW 46 : E-3 00 4 V01 : ... .. . ... ... : ... .. . ... : ... .. . ... : ... .. . ...
ROW 47 : ... .. . ... : ... .. . ... ... : ... .. . ... : ... .. . ... : ... .. . ...
ROW 48 : A-3 00 8 V02 : ... .. . ... ... : ... .. . ... : ... .. . ... : ... .. . ...
ROW 49 : ... .. . ... : ... .. . ... ... : ... .. . ... : ... .. . ... : ... .. . ...
ROW 4A : D-3 00 4 V01 : ... .. . ... ... : ... .. . ... : 8-# 00 . ... : ... .. . ...
ROW 4B : ... .. . ... : ... .. . ... ... : ... .. . ... : ... .. . ... : ... .. . ...
ROW 4C : F-3 00 8 V02 : ... .. . ... ... : ... .. . ... : ... .. 4 ... : ... .. . ...
ROW 4D : ... .. . ... : ... .. . ... ... : ... .. . ... : ... .. . ... : ... .. . ...
ROW 4E : A-3 00 4 V01 : ... .. . ... ... : ... .. . ... : ... .. . ... : ... .. . ...
ROW 4F : ... .. . ... : ... .. . ... ... : ... .. . ... : ... .. . ... : ... .. . ...
ROW 50 : E-3 00 8 V02 : ... .. . ... ... : ... .. . ... : ... .. . ... : ... .. . ...
ROW 51 : ... .. . ... : ... .. . ... ... : ... .. . ... : 7-# 00 . ... : ... .. . ...
ROW 52 : F-3 00 4 V01 : ... .. . ... ... : ... .. . ... : ... .. . ... : ... .. . ...
ROW 53 : ... .. . ... : ... .. . ... ... : ... .. . ... : ... .. . ... : ... .. . ...
ROW 54 : D-3 00 8 V02 : ... .. . ... ... : ... .. . ... : 6-# 00 . ... : ... .. . ...
ROW 55 : ... .. . ... : ... .. . ... ... : ... .. . ... : ... .. . ... : ... .. . ...
ROW 56 : E-3 00 4 V01 : ... .. . ... ... : ... .. . ... : 5-# 00 3 ... : ... .. . ...
ROW 57 : ... .. . ... : ... .. . ... ... : ... .. . ... : ... .. . ... : ... .. . ...
ROW 58 : A-3 00 8 V02 : ... .. . ... ... : ... .. . ... : 4-# 00 . ... : ... .. . ...
ROW 59 : ... .. . ... : ... .. . ... ... : ... .. . ... : ... .. . ... : ... .. . ...
ROW 5A : D-3 00 4 V01 : ... .. . ... ... : ... .. . ... : ... .. . ... : ... .. . ...
ROW 5B : ... .. . ... : ... .. . ... ... : ... .. . ... : ... .. . ... : ... .. . ...
ROW 5C : F-3 00 8 V02 : ... .. . ... ... : ... .. . ... : ... .. . ... : ... .. . ...
ROW 5D : ... .. . ... : ... .. . ... ... : ... .. . ... : ... .. . ... : ... .. . ...
ROW 5E : A-3 00 4 V01 : ... .. . ... ... : ... .. . ... : 3-# 00 . ... : ... .. . ...
ROW 5F : ... .. . ... : ... .. . ... ... : ... .. . ... : ... .. . ... : ... .. . ...
ROW 60 : E-3 00 8 V02 : ... .. . R22 ... : ... .. . ... : ... .. . ... : ... .. . ...
ROW 61 : ... .. . ... : ... .. . ... ... : ... .. . ... : ... .. 2 ... : ... .. . ...
ROW 62 : F-3 00 4 V01 : ... .. . ... ... : ... .. . ... : ... .. . ... : ... .. . ...
ROW 63 : ... .. . ... : ... .. . ... ... : ... .. . ... : ... .. . ... : ... .. . ...
ROW 64 : D-3 00 8 V02 : ... .. . ... ... : ... .. . ... : ... .. . ... : ... .. . ...
ROW 65 : ... .. . ... : ... .. . ... ... : ... .. . ... : ... .. . ... : ... .. . ...
ROW 66 : E-3 00 4 V01 : ... .. . ... ... : ... .. . ... : ... .. . ... : ... .. . ...
ROW 67 : ... .. . ... : ... .. . ... ... : ... .. . ... : ... .. . ... : ... .. . ...
ROW 68 : A-3 00 8 V02 : D-4 .. A A00 ... : ... .. . ... : 2-# 00 . ... : ... .. . ...
ROW 69 : ... .. . ... : ... .. . ... ... : ... .. . ... : ... .. . ... : ... .. . ...
ROW 6A : D-3 00 4 V01 : ... .. . ... ... : ... .. . ... : ... .. . ... : ... .. . ...
ROW 6B : ... .. . ... : ... .. . ... ... : ... .. . ... : ... .. . ... : ... .. . ...
ROW 6C : F-3 00 8 V02 : ... .. . ... ... : ... .. . ... : ... .. . ... : ... .. . ...
ROW 6D : ... .. . ... : ... .. . ... ... : ... .. . ... : ... .. 1 ... : ... .. . ...
ROW 6E : A-3 00 4 V01 : ... .. . ... ... : ... .. . ... : ... .. . ... : ... .. . ...
ROW 6F : ... .. . ... : ... .. . ... ... : ... .. . ... : ... .. . ... : ... .. . ...
ROW 70 : E-3 00 8 V02 : ... .. B ... ... : ... .. . ... : 1-# 00 . ... : ... .. . ...
ROW 71 : ... .. . ... : ... .. . ... ... : ... .. . ... : ... .. . ... : ... .. . ...
ROW 72 : F-3 00 4 V01 : ... .. . ... ... : ... .. . ... : ... .. . ... : ... .. . ...
ROW 73 : ... .. . ... : ... .. . ... ... : ... .. . ... : ... .. . ... : ... .. . ...
ROW 74 : D-3 00 8 V02 : ... .. . ... ... : ... .. . ... : ... .. . ... : ... .. . ...
ROW 75 : ... .. . ... : ... .. . ... ... : ... .. . ... : ... .. . ... : ... .. . ...
ROW 76 : E-3 00 4 V01 : ... .. . ... ... : ... .. . ... : ... .. . ... : ... .. . ...
ROW 77 : ... .. . ... : ... .. . ... ... : ... .. . ... : ... .. . ... : ... .. . ...
ROW 78 : A-3 00 8 V02 : ... .. C ... ... : ... .. . ... : 0-# 00 . ... : ... .. . ...
ROW 79 : ... .. . ... : ... .. . ... ... : ... .. . ... : ... .. . ... : ... .. . ...
ROW 7A : D-3 00 4 V01 : ... .. . ... ... : ... .. . ... : ... .. . ... : ... .. . ...
ROW 7B : ... .. . ... : ... .. . ... ... : ... .. . ... : ... .. . ... : ... .. . ...
ROW 7C : F-3 00 8 V02 : ... .. . ... ... : ... .. . ... : ... .. . ... : ... .. . ...
ROW 7D : ... .. . ... : ... .. . ... ... : ... .. . ... : ... .. . ... : ... .. . ...
ROW 7E : A-3 00 4 V01 : ... .. . ... ... : ... .. . ... : ... .. . ... : ... .. . ...
ROW 7F : ... .. . ... : ... .. . ... ... : ... .. . ... : ... .. . ... : ... .. . ...

PATTERN 02
ROW 00 : D#3 00 8 V02 : C#4 01 C A00 ... : C#2 00 . ... : 0-# 00 1 ... : ... .. . ...
ROW 01 : ... .. . ... : ... .. . ... ... : ... .. . ... : ... .. . ... : ... .. . ...
ROW 02 : E-3 00 4 V01 : ... .. . ... ... : ... .. . ... : ... .. . ... : ... .. . ...
ROW 03 : ... .. . ... : ... .. . ... ... : ... .. . ... : ... .. . ... : ... .. . ...
ROW 04 : C#3 00 8 V02 : D-4 01 . ... ... : ... .. . ... : ... .. . ... : ... .. . ...
ROW 05 : ... .. . ... : ... .. . ... ... : ... .. . ... : ... .. . ... : ... .. . ...
ROW 06 : D#3 00 4 V01 : --- .. . ... ... : ... .. . ... : ... .. . ... : ... .. . ...
ROW 07 : ... .. . ... : ... .. . ... ... : ... .. . ... : ... .. . ... : ... .. . ...
ROW 08 : G#3 00 8 V02 : ... .. . ... ... : ... .. . ... : ... .. . ... : ... .. . ...
ROW 09 : ... .. . ... : ... .. . ... ... : ... .. . ... : ... .. . ... : ... .. . ...
ROW 0A : C#3 00 4 V01 : ... .. . ... ... : ... .. . ... : ... .. . ... : ... .. . ...
ROW 0B : ... .. . ... : ... .. . ... ... : ... .. . ... : ... .. . ... : ... .. . ...
ROW 0C : E-3 00 8 V02 : C#4 01 A A00 ... : ... .. . ... : ... .. 2 ... : ... .. . ...
ROW 0D : ... .. . ... : ... .. . ... ... : ... .. . ... : ... .. . ... : ... .. . ...
ROW 0E : G#3 00 4 V01 : ... .. . ... ... : ... .. . ... : ... .. . ... : ... .. . ...
ROW 0F : ... .. . ... : ... .. . ... ... : ... .. . ... : ... .. . ... : ... .. . ...
ROW 10 : D#3 00 8 V02 : D-4 01 . ... ... : ... .. . ... : 1-# 00 . ... : ... .. . ...
ROW 11 : ... .. . ... : ... .. . ... ... : ... .. . ... : ... .. . ... : ... .. . ...
ROW 12 : E-3 00 4 V01 : --- .. . ... ... : ... .. . ... : ... .. . ... : ... .. . ...
ROW 13 : ... .. . ... : ... .. . ... ... : ... .. . ... : ... .. . ... : ... .. . ...
ROW 14 : C#3 00 8 V02 : ... .. . ... ... : ... .. . ... : ... .. . ... : ... .. . ...
ROW 15 : ... .. . ... : ... .. . ... ... : ... .. . ... : ... .. . ... : ... .. . ...
ROW 16 : D#3 00 4 V01 : ... .. . ... ... : ... .. . ... : ... .. . ... : ... .. . ...
ROW 17 : ... .. . ... : ... .. . ... ... : ... .. . ... : ... .. . ... : ... .. . ...
ROW 18 : G#3 00 8 V02 : C#4 01 7 A00 ... : ... .. . ... : ... .. . ... : ... .. . ...
ROW 19 : ... .. . ... : ... .. . ... ... : ... .. . ... : ... .. 3 ... : ... .. . ...
ROW 1A : C#3 00 4 V01 : ... .. . ... ... : ... .. . ... : ... .. . ... : ... .. . ...
ROW 1B : ... .. . ... : ... .. . ... ... : ... .. . ... : ... .. . ... : ... .. . ...
ROW 1C : E-3 00 8 V02 : D-4 01 . ... ... : ... .. . ... : ... .. . ... : ... .. . ...
ROW 1D : ... .. . ... : ... .. . ... ... : ... .. . ... : ... .. . ... : ... .. . ...
ROW 1E : G#3 00 4 V01 : --- .. . ... ... : ... .. . ... : ... .. . ... : ... .. . ...
ROW 1F : ... .. . ... : ... .. . ... ... : ... .. . ... : ... .. . ... : ... .. . ...
ROW 20 : D#3 00 8 V02 : ... .. . ... ... : ... .. . ... : 2-# 00 . ... : ... .. . ...
ROW 21 : ... .. . ... : ... .. . ... ... : ... .. . ... : ... .. 4 ... : ... .. . ...
ROW 22 : E-3 00 4 V01 : ... .. . ... ... : ... .. . ... : ... .. . ... : ... .. . ...
ROW 23 : ... .. . ... : ... .. . ... ... : ... .. . ... : ... .. . ... : ... .. . ...
ROW 24 : C#3 00 8 V02 : C#4 01 4 A00 ... : ... .. . ... : ... .. . ... : ... .. . ...
ROW 25 : ... .. . ... : ... .. . ... ... : ... .. . ... : ... .. . ... : ... .. . ...
ROW 26 : D#3 00 4 V01 : ... .. . ... ... : ... .. . ... : 3-# 00 . ... : ... .. . ...
ROW 27 : ... .. . ... : ... .. . ... ... : ... .. . ... : ... .. . ... : ... .. . ...
ROW 28 : G#3 00 8 V02 : D-4 01 . ... ... : ... .. . ... : ... .. . ... : ... .. . ...
ROW 29 : ... .. . ... : ... .. . ... ... : ... .. . ... : ... .. . ... : ... .. . ...
ROW 2A : C#3 00 4 V01 : --- .. . ... ... : ... .. . ... : 4-# 00 5 ... : ... .. . ...
ROW 2B : ... .. . ... : ... .. . ... ... : ... .. . ... : ... .. . ... : ... .. . ...
ROW 2C : E-3 00 8 V02 : ... .. . ... ... : ... .. . ... : ... .. . ... : ... .. . ...
ROW 2D : ... .. . ... : ... .. . ... ... : ... .. . ... : ... .. . ... : ... .. . ...
ROW 2E : G#3 00 4 V01 : ... .. . ... ... : ... .. . ... : ... .. . ... : ... .. . ...
ROW 2F : ... .. . ... : ... .. . ... ... : ... .. . ... : 5-# 00 . ... : ... .. . ...
ROW 30 : D#3 00 8 V02 : C#4 01 2 A00 ... : ... .. . ... : ... .. . ... : ... .. . ...
ROW 31 : ... .. . ... : ... .. . ... ... : ... .. . ... : ... .. . ... : ... .. . ...
ROW 32 : E-3 00 4 V01 : ... .. . ... ... : ... .. . ... : ... .. . ... : ... .. . ...
ROW 33 : ... .. . ... : ... .. . ... ... : ... .. . ... : ... .. . ... : ... .. . ...
ROW 34 : C#3 00 8 V02 : D-4 01 . ... ... : ... .. . ... : ... .. . ... : ... .. . ...
ROW 35 : ... .. . ... : ... .. . ... ... : ... .. . ... : ... .. . ... : ... .. . ...
ROW 36 : D#3 00 4 V01 : --- .. . ... ... : ... .. . ... : 6-# 00 . ... : ... .. . ...
ROW 37 : ... .. . ... : ... .. . ... ... : ... .. . ... : ... .. . ... : ... .. . ...
ROW 38 : G#3 00 8 V02 : ... .. . ... ... : ... .. . ... : ... .. . ... : ... .. . ...
ROW 39 : ... .. . ... : ... .. . ... ... : ... .. . ... : ... .. . ... : ... .. . ...
ROW 3A : C#3 00 4 V01 : ... .. . ... ... : ... .. . ... : ... .. . ... : ... .. . ...
ROW 3B : ... .. . ... : ... .. . ... ... : ... .. . ... : ... .. . ... : ... .. . ...
ROW 3C : E-3 00 8 V02 : ... .. . ... ... : ... .. . ... : 7-# 00 . ... : ... .. . ...
ROW 3D : ... .. . ... : ... .. . ... ... : ... .. . ... : ... .. . ... : ... .. . ...
ROW 3E : G#3 00 4 V01 : ... .. . ... ... : ... .. . ... : 8-# 00 . ... : ... .. . ...
ROW 3F : ... .. . ... : ... .. . ... ... : ... .. . ... : ... .. . ... : ... .. . ...
ROW 40 : D#3 00 8 V02 : ... .. . ... ... : ... .. . ... : 9-# 00 . ... : ... .. . ...
ROW 41 : ... .. . ... : ... .. . ... ... : ... .. . ... : ... .. . ... : ... .. . ...
ROW 42 : E-3 00 4 V01 : ... .. . ... ... : ... .. . ... : ... .. . ... : ... .. . ...
ROW 43 : ... .. . ... : ... .. . ... ... : ... .. . ... : ... .. . ... : ... .. . ...
ROW 44 : C#3 00 8 V02 : ... .. . ... ... : ... .. . ... : ... .. 5 ... : ... .. . ...
ROW 45 : ... .. . ... : ... .. . ... ... : ... .. . ... : ... .. . ... : ... .. . ...
ROW 46 : D#3 00 4 V01 : ... .. . ... ... : ... .. . ... : ... .. . ... : ... .. . ...
ROW 47 : ... .. . ... : ... .. . ... ... : ... .. . ... : ... .. . ... : ... .. . ...
ROW 48 : G#3 00 8 V02 : ... .. . ... ... : ... .. . ... : ... .. . ... : ... .. . ...
ROW 49 : ... .. . ... : ... .. . ... ... : ... .. . ... : ... .. . ... : ... .. . ...
ROW 4A : C#3 00 4 V01 : ... .. . ... ... : ... .. . ... : 8-# 00 . ... : ... .. . ...
ROW 4B : ... .. . ... : ... .. . ... ... : ... .. . ... : ... .. . ... : ... .. . ...
ROW 4C : E-3 00 8 V02 : ... .. . ... ... : ... .. . ... : ... .. 4 ... : ... .. . ...
ROW 4D : ... .. . ... : ... .. . ... ... : ... .. . ... : ... .. . ... : ... .. . ...
ROW 4E : G#3 00 4 V01 : ... .. . ... ... : ... .. . ... : ... .. . ... : ... .. . ...
ROW 4F : ... .. . ... : ... .. . ... ... : ... .. . ... : ... .. . ... : ... .. . ...
ROW 50 : D#3 00 8 V02 : ... .. . ... ... : ... .. . ... : ... .. . ... : ... .. . ...
ROW 51 : ... .. . ... : ... .. . ... ... : ... .. . ... : 7-# 00 . ... : ... .. . ...
ROW 52 : E-3 00 4 V01 : ... .. . ... ... : ... .. . ... : ... .. . ... : ... .. . ...
ROW 53 : ... .. . ... : ... .. . ... ... : ... .. . ... : ... .. . ... : ... .. . ...
ROW 54 : C#3 00 8 V02 : ... .. . ... ... : ... .. . ... : 6-# 00 . ... : ... .. . ...
ROW 55 : ... .. . ... : ... .. . ... ... : ... .. . ... : ... .. . ... : ... .. . ...
ROW 56 : D#3 00 4 V01 : ... .. . ... ... : ... .. . ... : 5-# 00 3 ... : ... .. . ...
ROW 57 : ... .. . ... : ... .. . ... ... : ... .. . ... : ... .. . ... : ... .. . ...
ROW 58 : G#3 00 8 V02 : ... .. . ... ... : ... .. . ... : 4-# 00 . ... : ... .. . ...
ROW 59 : ... .. . ... : ... .. . ... ... : ... .. . ... : ... .. . ... : ... .. . ...
ROW 5A : C#3 00 4 V01 : ... .. . ... ... : ... .. . ... : ... .. . ... : ... .. . ...
ROW 5B : ... .. . ... : ... .. . ... ... : ... .. . ... : ... .. . ... : ... .. . ...
ROW 5C : E-3 00 8 V02 : ... .. . ... ... : ... .. . ... : ... .. . ... : ... .. . ...
ROW 5D : ... .. . ... : ... .. . ... ... : ... .. . ... : ... .. . ... : ... .. . ...
ROW 5E : G#3 00 4 V01 : ... .. . ... ... : ... .. . ... : 3-# 00 . ... : ... .. . ...
ROW 5F : ... .. . ... : ... .. . ... ... : ... .. . ... : ... .. . ... : ... .. . ...
ROW 60 : D#3 00 8 V02 : ... .. . ... ... : ... .. . ... : ... .. . ... : ... .. . ...
ROW 61 : ... .. . ... : ... .. . ... ... : ... .. . ... : ... .. 2 ... : ... .. . ...
ROW 62 : E-3 00 4 V01 : ... .. . ... ... : ... .. . ... : ... .. . ... : ... .. . ...
ROW 63 : ... .. . ... : ... .. . ... ... : ... .. . ... : ... .. . ... : ... .. . ...
ROW 64 : C#3 00 8 V02 : ... .. . ... ... : ... .. . ... : ... .. . ... : ... .. . ...
ROW 65 : ... .. . ... : ... .. . ... ... : ... .. . ... : ... .. . ... : ... .. . ...
ROW 66 : D#3 00 4 V01 : ... .. . ... ... : ... .. . ... : ... .. . ... : ... .. . ...
ROW 67 : ... .. . ... : ... .. . ... ... : ... .. . ... : ... .. . ... : ... .. . ...
ROW 68 : G#3 00 8 V02 : ... .. . ... ... : ... .. . ... : 2-# 00 . ... : ... .. . ...
ROW 69 : ... .. . ... : ... .. . ... ... : ... .. . ... : ... .. . ... : ... .. . ...
ROW 6A : C#3 00 4 V01 : ... .. . ... ... : ... .. . ... : ... .. . ... : ... .. . ...
ROW 6B : ... .. . ... : ... .. . ... ... : ... .. . ... : ... .. . ... : ... .. . ...
ROW 6C : E-3 00 8 V02 : ... .. . ... ... : ... .. . ... : ... .. . ... : ... .. . ...
ROW 6D : ... .. . ... : ... .. . ... ... : ... .. . ... : ... .. 1 ... : ... .. . ...
ROW 6E : G#3 00 4 V01 : ... .. . ... ... : ... .. . ... : ... .. . ... : ... .. . ...
ROW 6F : ... .. . ... : ... .. . ... ... : ... .. . ... : ... .. . ... : ... .. . ...
ROW 70 : D#3 00 8 V02 : ... .. . ... ... : ... .. . ... : 1-# 00 . ... : ... .. . ...
ROW 71 : ... .. . ... : ... .. . ... ... : ... .. . ... : ... .. . ... : ... .. . ...
ROW 72 : E-3 00 4 V01 : ... .. . ... ... : ... .. . ... : ... .. . ... : ... .. . ...
ROW 73 : ... .. . ... : ... .. . ... ... : ... .. . ... : ... .. . ... : ... .. . ...
ROW 74 : C#3 00 8 V02 : ... .. . ... ... : ... .. . ... : ... .. . ... : ... .. . ...
ROW 75 : ... .. . ... : ... .. . ... ... : ... .. . ... : ... .. . ... : ... .. . ...
ROW 76 : D#3 00 4 V01 : ... .. . ... ... : ... .. . ... : ... .. . ... : ... .. . ...
ROW 77 : ... .. . ... : ... .. . ... ... : ... .. . ... : ... .. . ... : ... .. . ...
ROW 78 : G#3 00 8 V02 : ... .. . ... ... : ... .. . ... : 0-# 00 . ... : ... .. . ...
ROW 79 : ... .. . ... : ... .. . ... ... : ... .. . ... : ... .. . ... : ... .. . ...
ROW 7A : C#3 00 4 V01 : ... .. . ... ... : ... .. . ... : ... .. . ... : ... .. . ...
ROW 7B : ... .. . ... : ... .. . ... ... : ... .. . ... : ... .. . ... : ... .. . ...
ROW 7C : E-3 00 8 V02 : ... .. . ... ... : ... .. . ... : ... .. . ... : ... .. . ...
ROW 7D : ... .. . ... : ... .. . ... ... : ... .. . ... : ... .. . ... : ... .. . ...
ROW 7E : G#3 00 4 V01 : ... .. . ... ... : ... .. . ... : ... .. . ... : ... .. . ...
ROW 7F : ... .. . ... : ... .. . ... ... : ... .. . ... : ... .. . ... : ... .. . ...

# End of export
