; ============================
; FILE GENERATED WITH FTM2GBMC
; ============================
; FTM2GBMC created by Savestate!

; -- INFO --
#TITLE "3.5'' Floppy Disk"
#AUTHOR "Savestate"
#COPYRIGHT "2015"

; -- WAVE Macros --
#@0 {0123456789ABCDEFFEDCBA9876543210} ;Triangle Wave

; -- Export Mode --
; [0]gbs [1]bin [2]gbs+bin [3]gbdsp [4]dbdsp(dmg)
#mode 0

; -- Volume Macros --
#V1 {-1, 0, 0, 0, 0, -1, -2, -2, -3, -3, -4, -5, -5, -5, -6, -8, -8, -9, -9, -10, -10, -10, -11, -11, -12, -12, -12, -12, -13, -13, -13, -13, -14, -14, -15}
#V2 {-6, -10, -11, -11, -12, -13, -14, [,-14, -14, -14, -14, -14, -14, -14, -14, -14, -14, -14, -14, -14, -14, -14, -14, -14, -14, -14, -14, -14, -13, -13, -13, -13, -13, -13, -13, -13, -14,] 2,] 2}
#V3 {-5, -10, -11, -11, -11, -12, -12, -13, -15}
#V4 {-4, -4, -4, -13, -13, -12, -10, -9, -10, -12, -13, -13, -13, -13, -13, -15, -15, -15, -15, -15, -15, -15, -15, -15, -15, -15, -15, -15, -15, -15, -15, -15, -15}
#V5 {[,-3, -3, -4, -4, -4, -4, -3, -3, -3, -3, -3, -3, -4, -3, -3, -3, -3, -4, -4, -4, -4, -4, -4, -4,] 2,] 2}
#V69 {-10, -10, -10, -10, -10, -10, -10, -10, -10, -10, -10, -11, -11, -11, -11, -12,] 2,] 2} ; Release of 5
#V6 {-5}
#V7 {-7, -7, -7, -8, -8, -8, -9, -9, -10, -10, -10, -10, -10, -10, -11, -11, -11, -12, -12, -12, -12, -12, -12, -12, -12, -13, -13, -13, -13, -14, -14, -14, -14, -14, -15, -15, -15}

; -- Duty Cycle Macros --
#X0 {1}
#X1 {1, 1, 1, 0, 0, 0, 1, 1, 1, 0, 0, 0}
#X2 {[,0, 0, 0, 0, 1, 1, 1, 1, 2, 2, 2, 2, 3, 3, 3, 3,] 2,] 2}
#X3 {1, 1, 1, 0, 0, 0, 1, 1, 1}
#X4 {1}

; -- Pitch Macros --
#F0 {[,-3, 3,] 2,] 2}
#F1 {[,-3, 3,] 2,] 2}
#F2 {[,-3, 3,] 2,] 2}

; -- Tempo (temp unfinished) --
'ABCD t128 T243

'A  o3  zv1,1,0 zf0,0,0 zw0,1,0 c16 r8 o4  c16 r8 o3  c8 e8 r16 o4  e8 r16 o3  e8 f16 r8 o4  f16 r8 o3  f16 f+16 g8 r16 o4  g16 r16 g16 o3  g16 b16
'A  o4  c16 o3  c16 r16 o4  c16 r8 o3  c16 d+16 e16 o4  e16 r16 o3  e16 r16 e32^64 r64 e8 f16 r8 o4  f16 r16 f16 o3  f16 f+16 g16^32^64 r64 g16 o4  g16 r16 g16 o3  g16 b16
'A  v15  o4  c64 & c32^64 o3  c16 r16 o4  c16 r8 o3  c16 d+16 e16 o4  e16 r16 o3  e16 r16 e32^64 r64 e8 f16 r8 o4  f16 r16 f16 o3  f16 f+16 g16^32^64 r64 g16 o4  g16 r16 g16 o3  g16 b16
'A  o4  c16 o3  c16 r16 o4  c16 r8 o3  c16 d+16 e16 o4  e16 r16 o3  e16 r16 e32^64 r64 e8 f16 r8 o4  f16 r16 f16 o3  f16 f+16 g16^32^64 r64 g16 o4  g16 r16 g16 o3  g16 b16
'A  o4  c16 o3  c16 r16 o4  c16 r8 o3  c16 d+16 e16 o4  e16 r16 o3  e16 r16 e32^64 r64 e8 f16 r8 o4  f16 r16 f16 o3  f16 f+16 g16^32^64 r64 g16 o4  g16 r16 g16 o3  g16 b16
'A  o4  c16 o3  c16 r16 o4  c16 r8 o3  c16 d+16 e16 o4  e16 r16 o3  e16 r16 e32^64 r64 e8 f16 r8 o4  f16 r16 f16 o3  f16 f+16 g16^32^64 r64 g16 o4  g16 r16 g16 o3  g16 b16
'A  o4  c16 o3  c16 r16 o4  c16 r8 o3  c16 d+16 e16 o4  e16 r16 o3  e16 r16 e32^64 r64 e8 f16 r8 o4  f16 r16 f16 o3  f16 f+16 g16^32^64 r64 g16 o4  g32 r32 g32 r32 g32 r32 g32 r32 g32 r32
'A  c16 o3  c16 r16 o4  c16 r8 o3  c16 d+16 e16 o4  e16 r16 o3  e16 r16 e32^64 r64 e8 f16 r8 o4  f16 r16 f16 o3  f16 f+16 g16^32^64 r64 g16 o4  g16 r16 g16 o3  g16 b16
'A  o4  c16 o3  c16 r16 o4  c16 r8 o3  c16 d+16 e16 o4  e16 r16 o3  e16 r16 e32^64 r64 e8 f16 r8 o4  f16 r16 f16 o3  f16 f+16 g16^32^64 r64 g16 o4  g16 r16 g16 o3  g16 b16
'A  o4  c16 o3  c16 r16 o4  c16 r8 o3  c16 d+16 e16 o4  e16 r16 o3  e16 r16 e32^64 r64 e8 f16 r8 o4  f16 r16 f16 o3  f16 f+16 g16^32^64 r64 g16 o4  g16 r16 g16 o3  g16 b16
'A  o4  c16 o3  c16 r16 o4  c16 r8 o3  c16 d+16 e16 o4  e16 r16 o3  e16 r16 e32^64 r64 e8 f16 r8 o4  f16 r16 f16 o3  f16 f+16 g16^32^64 r64 g16 o4  g16 r16 g16 o3  g16 b16
'A  o4  c16 o3  c16 r16 o4  c16 r8 o3  c16 d+16 e16 o4  e16 r16 o3  e16 r16 e32^64 r64 e8 f16 r8 o4  f16 r16 f16 o3  f16 f+16 g16^32^64 r64 g16 o4  g32 r32 g32 r32 g32 r32 g32 r32 g32 r32
'A  zv4,1,0 zf0,0,0 zw1,1,0 g16 c16 d+16 c16 g16 c16 d+16 c16 g16 c16 d+16 c16 g16 o5  c16 d+16 c16 d16 c16 g16 c16 d16 c16 g16 c16 c+16 c16 g16 c16 c+16 c16 o4  a+16 b16
'A  o5  c32 r32 o4  c32 r32 o5  c32 r32 d+32 r32 g32 r32 o4  c32 r32 o5  g32 r32 d+32 r32 c32 r32 o4  c32 r32 o5  c32 r32 d+32 r32 g32 r32 a+32 r32 g32 r32 d+32 r32 c32^64 r64 o4  c32^64 r64 o5  c32^64 r64 d+32^64 r64 g32^64 r64 o4  c32^64 r64 o5  g32^64 r64 d+32^64 r64 c16 o4  c16 o5  c16 d+16 g16 g+16 g16 d+16
'A  o4  g16 c16 d+16 c16 g16 c16 d+16 c16 g16 c16 d+16 c16 g16 o5  c16 d+16 c16 d16 c16 g16 c16 d16 c16 g16 c16 c+16 c16 g16 c16 c+16 c16 o4  a+16 b16
'A  o5  c16 o4  c16 o5  c16 d+16 g16 o4  c16 o5  g16 d+16 c16 o4  c16 o5  c16 d+16 g16 a+16 g16 d+16 c16 o4  c16 o5  c16 d+16 g16 o4  c16 o5  g16 d+16 c16 o4  c16 o5  c16 d+16 g16 g+16 g16 d+16
'A  f16 o4  a+16 o5  f16 d+16 d16 o4  a+16 f16 o5  c16 d16 o4  f16 o5  d16 d+16 f16 a+16 f16 d+16 f16 o4  a+16 o5  f16 d+16 d16 o4  a+16 f16 o5  c16 d16 o4  f16 o5  d16 d+16 f16 a+16 f16 a+16
'A  o6  c16 o5  g+16 g16 f16 d+16 f16 g16 f16 d+16 g+16 d+16 o6  c16 o5  d+16 o6  d+16 c16 o5  d+16 o6  g+16 o5  g+16 g16 f16 d+16 f16 g16 f16 d+16 g+16 d+16 o6  c16 g+16 d+16 g16 o5  d+16
'A  o6  g16 d+16 o5  a+16 f16 g16 o6  d+16 f16 g16 a+16 g16 d+16 f16 g16 d+16 o5  a+16 g16 o6  g16 d+16 o5  a+16 f16 g16 o6  d+16 f16 g16 a+16 g16 d+16 f16 g16 d+16 o5  a+16 g16
'A  o6  c16 o5  g+16 g16 f16 d+16 f16 g16 f16 d+16 g+16 d+16 o6  c16 o5  d+16 o6  d+16 c16 o5  d+16 o6  g+16 o5  g+16 g16 f16 d+16 f16 g16 f16 d+16 g+16 d+16 o6  c16 g+16 d+16 g16 o5  d+16
'A  o6  g16 d+16 o5  a+16 f16 g16 o6  d+16 f16 g16 a+16 g16 d+16 f16 g16 d+16 o5  a+16 g16 o6  g16 d+16 o5  a+16 f16 g16 o6  d+16 f16 g16 a+16 g16 d+16 f16 g16 d+16 o5  a+16 g16
'A  o6  c16 o5  g+16 g16 f16 d+16 f16 g16 f16 d+16 g+16 d+16 o6  c16 o5  d+16 o6  d+16 c16 o5  d+16 o6  g+16 o5  g+16 g16 f16 d+16 f16 g16 f16 d+16 g+16 d+16 o6  c16 g+16 d+16 g16 o5  d+16
'A  o6  g16 d+16 o5  a+16 f16 g16 o6  d+16 f16 g16 a+16 g16 d+16 f16 g16 d+16 o5  a+16 g16 o6  g16 d+16 o5  a+16 f16 g16 o6  d+16 f16 g16 a+16 g16 d+16 f16 g16 d+16 o5  a+16 g16
'A  o6  c16 o5  g+16 g16 f16 d+16 f16 g16 f16 d+16 g+16 d+16 o6  c16 o5  d+16 o6  d+16 c16 o5  d+16 o6  g+16 o5  g+16 g16 f16 d+16 f16 g16 f16 d+16 g+16 d+16 o6  c16 g+16 d+16 g16 o5  d+16
'A  o6  g16 d+16 o5  a+16 f16 g16 o6  d+16 f16 g16 a+16 g16 d+16 f16 g16 d+16 o5  a+16 g16 o6  g16 d+16 o5  a+16 f16 g16 o6  d+16 f16 g16 a+16 g16 d+16 f16 g16 d+16 o5  a+16 g16
'A  o6  c16 o5  g+16 g16 f16 d+16 f16 g16 f16 d+16 g+16 d+16 o6  c16 o5  d+16 o6  d+16 c16 o5  d+16 o6  g+16 o5  g+16 g16 f16 d+16 f16 g16 f16 d+16 g+16 d+16 o6  c16 g+16 d+16 g16 o5  d+16
'A  o6  g16 d+16 o5  a+16 f16 g16 o6  d+16 f16 g16 a+16 g16 d+16 f16 g16 d+16 o5  a+16 g16 o6  g16 d+16 o5  a+16 f16 g16 o6  d+16 f16 g16 a+16 g16 d+16 f16 g16 d+16 o5  a+16 g16
'A  o6  c16 o5  g+16 g16 f16 d+16 f16 g16 f16 d+16 g+16 d+16 o6  c16 o5  d+16 o6  d+16 c16 o5  d+16 o6  g+16 o5  g+16 g16 f16 d+16 f16 g16 f16 d+16 g+16 d+16 o6  c16 g+16 d+16 g16 o5  d+16
'A  o6  g16 d+16 o5  a+16 f16 g16 o6  d+16 f16 g16 a+16 g16 d+16 f16 g16 d+16 o5  a+16 g16 o6  g16 d+16 o5  a+16 f16 g16 o6  d+16 f16 g16 v12  a+16 v9  g16 v7  d+16 v6  f16 v5  g16 d+16 o5  a+16 g16
'A  v6  d+32 v7  & d+32 v8  f64 v9  & f64 v10  & f64 v11  & f64 v12  a+64 v13  & a+64 v14  & a+64 v15  & a+64 f16 o6  d16 o5  f16 a+16 f16 d+16 f16 a+16 f16 o6  d16 o5  f16 a+16 f16 d+16 f16 a+16 f16 o6  d+16 o5  f16 a+16 f16 d+16 f16 a+16 f16 o6  d+16 o5  f16 a+16 f16
'A  d+16 g16 a+16 g16 o6  d+16 o5  g16 a+16 g16 d+16 g16 a+16 g16 o6  d+16 o5  g16 a+16 g16 d+16 g16 a+16 g16 o6  d+16 o5  g16 a+16 g16 d+16 g16 a+16 g16 o6  d+16 o5  g16 a+16 g16
'A  v15  zv6,1,0 zf2,1,0 zw3,1,0 a+4^16 & a+4^8^16 v15  a+4 v15  g+4^8^16 & g+4^16 v15  g+4
'A  v15  g4^8^16 & g1^2^16